<?xml version="1.0" standalone="no"?>
<!DOCTYPE svg PUBLIC "-//W3C//DTD SVG 20010904//EN"
 "http://www.w3.org/TR/2001/REC-SVG-20010904/DTD/svg10.dtd">
<svg version="1.0" xmlns="http://www.w3.org/2000/svg"
 width="600.000000pt" height="600.000000pt" viewBox="0 0 600.000000 600.000000"
 preserveAspectRatio="xMidYMid meet">

<g transform="translate(0.000000,600.000000) scale(0.100000,-0.100000)"
fill="#000000" stroke="none">
<path d="M2935 5500 c-197 -30 -206 -32 -236 -57 -37 -32 -39 -74 -3 -110 29
-29 38 -29 284 6 122 17 148 23 163 42 40 49 8 123 -58 133 -17 3 -84 -4 -150
-14z"/>
<path d="M3432 5497 c-32 -34 -28 -92 8 -118 28 -21 367 -74 407 -65 26 7 53
53 53 89 0 51 -28 68 -146 88 -60 10 -152 22 -204 25 -92 6 -96 6 -118 -19z"/>
<path d="M4129 5331 c-26 -27 -30 -37 -25 -64 8 -41 29 -59 91 -82 28 -10 101
-42 164 -72 62 -29 126 -53 141 -53 62 0 95 94 48 137 -30 27 -307 152 -352
160 -30 5 -40 1 -67 -26z"/>
<path d="M2320 5333 c-304 -142 -320 -151 -320 -203 0 -38 39 -80 75 -80 14 0
65 20 113 43 48 24 119 57 159 72 78 30 108 55 118 97 6 22 1 33 -23 58 -35
34 -68 38 -122 13z"/>
<path d="M4779 4995 c-30 -16 -43 -52 -33 -90 4 -14 34 -47 73 -77 36 -29 101
-85 143 -125 66 -63 82 -73 113 -73 47 0 85 36 85 82 0 27 -11 43 -68 98 -37
36 -103 94 -145 128 -84 69 -124 82 -168 57z"/>
<path d="M3286 4789 c-25 -20 -26 -24 -26 -123 0 -94 2 -104 23 -124 30 -28
80 -29 107 -2 17 17 20 33 20 124 0 101 -1 105 -26 125 -15 12 -37 21 -49 21
-12 0 -34 -9 -49 -21z"/>
<path d="M2385 4578 c-58 -31 -59 -79 -2 -173 23 -38 54 -76 68 -84 45 -25
102 2 116 57 4 19 -3 43 -28 90 -59 111 -99 140 -154 110z"/>
<path d="M4199 4535 c-36 -20 -111 -151 -107 -189 6 -58 95 -90 139 -50 31 28
89 137 89 168 0 32 -49 86 -77 86 -10 -1 -30 -7 -44 -15z"/>
<path d="M5282 4470 c-28 -27 -37 -62 -22 -92 31 -59 184 -295 202 -310 46
-40 138 -4 138 53 0 43 -170 318 -219 356 -25 19 -75 15 -99 -7z"/>
<path d="M3050 4406 c-340 -61 -624 -213 -854 -458 -352 -373 -483 -890 -356
-1395 125 -494 496 -890 987 -1052 385 -128 792 -95 1156 91 291 149 521 386
663 682 119 250 166 491 145 746 -19 223 -58 373 -146 555 -121 251 -280 434
-508 589 -165 112 -343 188 -537 231 -102 23 -445 29 -550 11z m1203 -456 c30
-23 41 -59 28 -93 -7 -18 -598 -684 -788 -888 -22 -24 -23 -30 -14 -71 27
-118 -73 -238 -196 -238 -21 0 -61 11 -90 24 -70 33 -107 95 -108 179 l0 59
-372 335 c-204 184 -374 341 -377 350 -20 51 10 100 65 109 41 7 5 36 538
-439 146 -130 269 -233 275 -230 6 4 39 9 75 12 l65 6 394 440 c217 242 404
445 416 452 31 18 60 16 89 -7z"/>
<path d="M3252 2894 c-37 -26 -20 -94 24 -94 53 0 75 64 32 94 -12 9 -25 16
-28 16 -3 0 -16 -7 -28 -16z"/>
<path d="M995 4190 c-31 -13 -865 -866 -866 -887 -4 -61 30 -103 84 -103 28 0
65 34 335 303 168 166 302 293 298 282 -48 -136 -104 -375 -127 -545 -20 -141
-17 -506 5 -655 77 -532 296 -1001 648 -1395 215 -241 466 -429 773 -580 248
-122 464 -194 726 -240 154 -28 539 -39 701 -21 585 67 1125 317 1530 709 100
97 117 126 98 173 -14 32 -67 55 -101 44 -12 -4 -62 -45 -112 -92 -389 -364
-824 -576 -1352 -659 -169 -27 -528 -24 -699 5 -539 91 -990 318 -1356 682
-191 191 -337 394 -459 639 -91 184 -137 306 -185 500 -52 204 -69 351 -70
575 0 205 12 324 50 506 23 110 85 320 102 346 4 7 48 -157 102 -390 99 -423
108 -447 160 -447 34 0 79 29 86 54 6 24 -246 1122 -267 1162 -11 22 -49 45
-72 43 -7 0 -21 -4 -32 -9z"/>
<path d="M4790 3834 c-41 -25 -78 -51 -82 -57 -4 -7 -8 -29 -8 -49 0 -43 36
-78 79 -78 27 0 129 56 169 93 48 44 11 137 -55 137 -15 0 -62 -21 -103 -46z"/>
<path d="M5633 3840 c-50 -30 -50 -53 -4 -218 22 -81 43 -160 47 -177 16 -73
96 -101 143 -51 31 33 29 60 -12 218 -50 189 -63 217 -103 234 -41 17 -33 18
-71 -6z"/>
<path d="M5759 3121 c-24 -19 -24 -22 -27 -228 -3 -203 -3 -208 19 -225 31
-26 85 -23 113 5 22 23 24 31 28 208 5 190 -1 232 -32 249 -30 16 -76 12 -101
-9z"/>
<path d="M4942 2955 c-58 -42 -44 -125 25 -144 49 -14 117 -14 166 0 29 8 42
18 51 41 16 38 11 60 -20 89 -21 19 -38 23 -112 27 -70 3 -92 0 -110 -13z"/>
<path d="M5696 2398 c-18 -16 -34 -54 -55 -128 -17 -58 -39 -132 -51 -164 -11
-33 -20 -72 -20 -88 0 -36 40 -78 75 -78 54 0 72 25 114 154 54 165 73 244 66
266 -9 27 -53 60 -81 60 -12 0 -34 -10 -48 -22z"/>
<path d="M1733 2155 c-81 -46 -107 -79 -99 -125 7 -46 41 -73 82 -67 17 3 63
24 102 48 80 48 98 78 80 129 -21 61 -75 65 -165 15z"/>
<path d="M4693 2115 c-26 -18 -37 -63 -24 -96 11 -29 157 -119 194 -119 54 0
94 70 68 119 -15 27 -159 111 -191 111 -14 0 -35 -7 -47 -15z"/>
<path d="M5427 1729 c-9 -6 -47 -56 -83 -111 -36 -55 -81 -121 -100 -146 -60
-78 -36 -162 45 -162 44 0 79 38 182 194 87 132 99 176 59 216 -22 22 -73 26
-103 9z"/>
<path d="M2368 1520 c-19 -22 -47 -63 -61 -93 -24 -46 -26 -57 -16 -85 13 -38
35 -52 82 -52 38 0 57 17 106 99 46 76 50 113 18 145 -41 41 -87 36 -129 -14z"/>
<path d="M4067 1508 c-9 -7 -21 -26 -27 -42 -9 -26 -7 -38 22 -94 48 -92 76
-123 116 -124 45 -1 82 35 82 80 0 32 -49 128 -88 175 -18 20 -80 23 -105 5z"/>
<path d="M3212 1297 c-20 -21 -22 -34 -22 -126 0 -95 2 -104 25 -126 39 -40
103 -28 124 24 20 47 11 203 -13 230 -27 30 -85 28 -114 -2z"/>
</g>
</svg>
